<svg width="13" height="15" viewBox="0 0 13 15" fill="none" xmlns="http://www.w3.org/2000/svg">
<path fill-rule="evenodd" clip-rule="evenodd" d="M8.92229 0.0146861C8.93323 -0.000891719 8.95469 -0.00467756 8.9703 0.00623019L10.0366 0.75201C10.0522 0.762917 10.056 0.784386 10.0451 0.799964L8.56096 2.91706C9.28246 3.1473 9.77401 3.39565 9.77401 3.39565C9.77401 3.39565 8.57252 5.46 6.53466 5.46C4.49681 5.46 3.04873 3.53598 3.04873 3.53598C3.04873 3.53598 3.56219 3.20867 4.32332 2.92795L2.69547 0.99018C2.68324 0.97561 2.68515 0.953892 2.69973 0.941669L3.69688 0.1059C3.71148 0.0936759 3.73322 0.0955758 3.74545 0.110144L5.80656 2.5637C5.98304 2.54376 6.16284 2.53262 6.34428 2.53262C6.60506 2.53262 6.86551 2.55242 7.11978 2.58603L8.92229 0.0146861ZM9.32546 5.55776C9.86928 5.16981 10.6922 4.15723 10.6922 4.15723C10.6922 4.15723 12.7941 5.82103 12.7941 9.3489C12.7941 12.8767 9.16018 15 9.16018 15C9.16018 15 7.42396 13.2486 6.99773 11.0284C6.57153 8.80821 7.62822 6.34296 7.62822 6.34296C7.62822 6.34296 8.78162 5.94572 9.32546 5.55776ZM3.46866 5.55776C2.92484 5.16981 2.10194 4.15723 2.10194 4.15723C2.10194 4.15723 0 5.82103 0 9.3489C0 12.8767 3.63393 15 3.63393 15C3.63393 15 5.37015 13.2486 5.79638 11.0284C6.22259 8.80821 5.1659 6.34296 5.1659 6.34296C5.1659 6.34296 4.0125 5.94572 3.46866 5.55776Z" fill="#ACB9C1"/>
</svg>
