<svg width="15" height="17" viewBox="0 0 15 17" fill="none" xmlns="http://www.w3.org/2000/svg">
<path fill-rule="evenodd" clip-rule="evenodd" d="M8.33214 8.46285C8.44839 8.39259 8.54702 8.24537 8.62655 8.08174C9.67334 8.50574 10.409 9.50768 10.409 10.6761C10.409 12.2284 9.11073 13.4867 7.50931 13.4867C6.85193 13.4867 6.24563 13.2747 5.75928 12.9173C5.59974 12.8424 5.46848 12.7705 5.36107 12.7117C5.19446 12.6204 5.08521 12.5605 5.0168 12.5699C4.81682 12.5972 4.87488 12.7796 4.92765 12.9452C4.96346 13.0577 4.99686 13.1625 4.94517 13.2058C4.8911 13.2511 4.71594 13.0856 4.51128 12.8922C4.23267 12.6289 3.89939 12.314 3.74223 12.4086C3.61797 12.4834 3.73861 12.6863 3.88629 12.9346L3.89724 12.9531C3.95963 13.0581 4.03192 13.165 4.09789 13.2625C4.232 13.4608 4.34001 13.6206 4.28597 13.6476C4.22064 13.6803 3.76548 13.3758 3.38191 12.9531C3.23386 12.7899 3.09047 12.6131 2.9572 12.4488V12.4487C2.66549 12.089 2.42246 11.7894 2.28604 11.8249C2.12193 11.8676 2.24608 12.203 2.42849 12.5259C2.51379 12.6769 2.61413 12.8306 2.701 12.9637V12.9637C2.83612 13.1707 2.93867 13.3278 2.90148 13.3471C2.8513 13.3731 2.4097 12.9464 2.10977 12.4086C1.93162 12.0891 1.78203 11.7361 1.66092 11.4503C1.52959 11.1404 1.43176 10.9095 1.36734 10.8863C1.14352 10.8056 1.14352 11.2578 1.23329 11.9106C1.245 11.9957 1.26244 12.085 1.28391 12.176C2.15444 14.9675 4.82865 17 7.99259 17C11.8627 17 15 13.959 15 10.2077C15 6.6373 12.158 3.71035 8.54715 3.43632C8.55171 3.26813 8.64029 2.93459 8.64029 2.93459C8.64029 2.93459 9.27774 1.40606 9.31145 1.07943C9.31366 1.05775 9.3163 1.03419 9.31915 1.00911C9.35885 0.65619 9.43272 0 8.86312 0C8.55891 0 8.41747 0.224275 8.25568 0.480778V0.480781C8.19357 0.579252 8.12844 0.682474 8.04998 0.779576C7.48486 1.47899 6.53459 2.3524 5.99577 2.81772C4.85689 3.80123 3.73951 4.60952 3.08782 5.08094L3.08779 5.08097C2.79139 5.29537 2.59135 5.4401 2.52944 5.4999C2.06288 5.95066 0.39003 8.94114 0.39003 8.94114C0.39003 8.94114 -0.150952 9.90057 0.0413356 10.0952C0.233623 10.2897 0.697324 10.2452 0.697324 10.2452C0.697324 10.2452 6.92681 8.82881 7.48452 8.71712C7.63468 8.68703 7.74068 8.66967 7.82206 8.65635C8.04301 8.6202 8.08268 8.61369 8.33214 8.46285ZM3.92766 6.64275C3.59328 6.95775 3.03871 7.70963 3.03871 7.70963C3.03871 7.70963 4.06938 7.77255 4.63701 7.23782C5.20468 6.70305 5.07462 5.79172 5.07462 5.79172C5.07462 5.79172 4.26202 6.32775 3.92766 6.64275Z" fill="#ACB9C1"/>
</svg>
