<svg width="11" height="15" viewBox="0 0 11 15" fill="none" xmlns="http://www.w3.org/2000/svg">
<path fill-rule="evenodd" clip-rule="evenodd" d="M8.26475 11.5838C8.44612 10.9061 8.09407 9.51299 8.09407 9.51299C8.09407 9.51299 7.83872 10.6479 7.43973 11.0674C7.09934 11.4252 6.68232 11.6734 6.08424 11.7386C6.57323 11.4959 6.90951 10.9898 6.90951 10.4049C6.90951 9.58386 6.24686 8.91824 5.42944 8.91824C4.61202 8.91824 3.94934 9.58386 3.94934 10.4049C3.94934 10.6292 3.9988 10.8418 4.08731 11.0325C3.57604 10.6163 3.49564 9.94905 3.49564 9.94905C3.49564 9.94905 2.92474 12.371 4.49782 13.5103C6.07087 14.6496 9.15244 13.6703 9.15244 13.6703C9.15244 13.6703 4.74253 16.8409 1.47474 13.3901C-1.34019 10.4175 0.740043 6.504 0.740043 6.504C0.740043 6.504 0.650204 6.86704 0.650204 7.28848C0.650204 7.70992 0.87382 8.03057 0.87382 8.03057C0.87382 8.03057 1.54086 6.59388 2.05998 6.00961C2.5513 5.45666 3.16718 5.00819 3.69915 4.62082C4.10864 4.32264 4.4684 4.06067 4.68327 3.81513C5.86673 2.46295 5.14109 0 5.14109 0C5.14109 0 6.47517 1.20176 6.84761 2.75384C6.98959 3.34547 6.89824 4.01862 6.81659 4.62059C6.68401 5.59782 6.57687 6.38745 7.53463 6.33621C9.08237 6.25339 7.73743 3.81513 7.73743 3.81513C7.73743 3.81513 11.2483 5.70068 10.986 8.99839C10.7237 12.2961 7.14846 13.0458 7.14846 13.0458C7.14846 13.0458 8.08335 12.2615 8.26475 11.5838Z" fill="#ACB9C1"/>
</svg>
