<svg width="18" height="15" viewBox="0 0 18 15" fill="none" xmlns="http://www.w3.org/2000/svg">
<path fill-rule="evenodd" clip-rule="evenodd" d="M6.04121 15C8.57662 15 10.7473 13.5909 11.6434 11.5933C11.6543 11.5689 8.04563 12.5311 8.1607 12.191C8.21208 12.0391 10.4242 11.231 12.0359 10.2884C12.9622 9.74664 13.3888 8.59977 13.3888 8.59977C13.3888 8.59977 11.8282 9.35748 11.0392 9.5497C9.44934 9.93709 8.04982 9.89538 8.04982 9.85501C8.04982 9.76773 10.3737 9.32618 13.6036 7.35794C15.1229 6.43215 15.5355 4.83747 15.5355 4.83747C15.5355 4.83747 13.8652 5.83239 12.8555 6.16087C10.4609 6.93982 8.27576 7.17455 8.27576 7.06915C8.27576 6.84347 10.1988 6.31468 12.2376 5.32675C13.2977 4.8131 14.2158 4.14202 15.2797 3.39572C17.0206 2.17469 17.3077 0 17.3077 0C17.3077 0 15.5907 1.10743 14.7528 1.47519C11.2954 2.99271 8.24243 3.78873 6.04121 3.96106C2.7184 4.22122 0 6.53961 0 9.5497C0 12.5598 2.70473 15 6.04121 15Z" fill="#ACB9C1"/>
</svg>
