<svg width="17" height="15" viewBox="0 0 17 15" fill="none" xmlns="http://www.w3.org/2000/svg">
<path fill-rule="evenodd" clip-rule="evenodd" d="M0.00169704 7.51063C-0.000564607 7.50667 -0.000565742 7.50177 0.00169401 7.49779L4.2764 0.0062768C4.27863 0.00239083 4.28271 0 4.28709 0H12.7598C12.7642 0 12.7683 0.00241134 12.7705 0.00633137L16.9983 7.49785C17.0006 7.50177 17.0006 7.50664 16.9983 7.51056L12.7705 14.9937C12.7683 14.9976 12.7642 15 12.7598 15H4.28709C4.28271 15 4.27863 14.9976 4.2764 14.9937L0.00169704 7.51063ZM12.4385 7.5C12.4385 9.73037 10.6757 11.5385 8.50134 11.5385C6.32693 11.5385 4.56421 9.73037 4.56421 7.5C4.56421 5.2696 6.32693 3.46155 8.50134 3.46155C10.6757 3.46155 12.4385 5.2696 12.4385 7.5Z" fill="#ACB9C1"/>
</svg>
