<svg width="10" height="15" viewBox="0 0 10 15" fill="none" xmlns="http://www.w3.org/2000/svg">
<path fill-rule="evenodd" clip-rule="evenodd" d="M9.70588 10.1523C9.70588 12.8296 7.53315 15 4.85294 15C2.17273 15 0 12.8296 0 10.1523C0 7.54836 4.59043 0.396929 4.84219 0.00667442C4.84794 -0.00222486 4.85797 -0.00222478 4.86369 0.00667451C5.11545 0.396929 9.70588 7.54836 9.70588 10.1523ZM4.04397 13.4458C1.58136 12.9056 2.00276 10.1703 2.00276 10.1703C2.00276 10.1703 2.67522 11.8215 4.30709 12.3563C5.93894 12.8912 7.91102 12.1067 7.91102 12.1067C7.91102 12.1067 6.50659 13.9861 4.04397 13.4458Z" fill="#ACB9C1"/>
</svg>
